<svg width="32" height="32" fill="none" xmlns="http://www.w3.org/2000/svg"><path d="m22.0712 7.52015-.0002-.00059c-.2097-.58785-.5912-1.09772-1.0951-1.45957-.5041-.36196-1.1059-.55795-1.7243-.55999H17.25c-.9742 0-1.75.80979-1.75 1.77841 0 .96861.7758 1.77841 1.75 1.77841h1.6476l1.4681 4.11368h-4.9491l-.131-.372c.695-.2397 1.1894-.9117 1.1894-1.6849 0-.9686-.7758-1.77837-1.75-1.77837H11c-.9742 0-1.75.80977-1.75 1.77837 0 .9687.7758 1.7784 1.75 1.7784h.5847l1.0712 3.0097c-1.1584-1.5803-2.97303-2.6169-5.06871-2.7179C3.79072 12.9902.5 16.2082.5 20.0625c0 3.845 2.96332 6.892 6.75 6.892 3.1805 0 5.7776-2.1423 6.5264-5.1136h4.4481c.7277 2.8628 3.166 4.9549 6.189 5.1003h.0003c3.7944.1802 7.0862-3.0231 7.0862-6.8915 0-3.8329-2.964-6.8792-6.75-6.8792h-.672l-2.0068-5.65035ZM9.99856 18.2841H8.5c-.97418 0-1.75.8098-1.75 1.7784s.77582 1.7784 1.75 1.7784h1.49892c-.59662.998-1.69105 1.6278-2.96658 1.5451l-.00151-.0001c-1.59659-.0986-2.95413-1.4932-3.03127-3.1656-.07604-1.9655 1.38477-3.493 3.25044-3.493 1.17971 0 2.18549.6157 2.74856 1.5568Zm15.90984-.0006L25.373 16.78c.1952.0371.3872.0927.5733.1666.4037.16.7722.4024 1.083.7131.3109.3106.5576.6832.7247 1.0954.167.4122.2508.8552.246 1.302v.0054c0 1.9258-1.4999 3.4013-3.3812 3.3356-1.6519-.0665-3.0747-1.5185-3.1189-3.2447-.0157-.7837.2174-1.4905.6204-2.0559l.4962 1.3915.0001.0002c.3271.9156 1.3229 1.4122 2.2459 1.0672.9096-.3399 1.374-1.3543 1.0459-2.2729Zm-7.0728-1.5562c-.2651.4821-.4744 1.0018-.6137 1.5568h-.9945l-.5556-1.5568h2.1638Z" fill="url(#a)" stroke="#000"/><defs><linearGradient id="a" x1="16" y1="6" x2="16" y2="26.4545" gradientUnits="userSpaceOnUse"><stop stop-color="#FFBF00"/><stop offset="1" stop-color="#D9940B"/></linearGradient></defs></svg>